<svg data-v-423bf9ae="" xmlns="http://www.w3.org/2000/svg" viewBox="0 0 849 90" class="iconLeft"><!----><!----><!----><g data-v-423bf9ae="" id="3c94e48e-865a-4b77-9b35-a03fdd0494e9" fill="white" transform="matrix(3.75,0,0,3.75,108.53515625,7.3828125)"><path d="M1.25 14.36L1.25 14.36L1.25 14.36Q1.18 14.08 1.18 13.59L1.18 13.59L1.18 13.59Q1.18 13.09 1.47 10.92L1.47 10.92L1.47 10.92Q1.99 7.32 1.99 5.35L1.99 5.35L1.99 5.35Q1.99 4.93 1.93 4.20L1.93 4.20L1.93 4.20Q3.00 4.26 3.49 4.54L3.49 4.54L3.49 4.54Q3.70 4.65 3.81 4.88L3.81 4.88L3.81 4.88Q3.92 5.11 3.94 5.31L3.94 5.31L3.94 5.31Q3.96 5.50 3.96 6.02L3.96 6.02L3.96 6.02Q3.96 6.54 3.54 9.42L3.54 9.42L3.54 9.42Q3.11 12.29 3.04 13.94L3.04 13.94L3.04 13.94Q6.36 13.94 7.95 13.41L7.95 13.41L7.95 13.41Q7.83 14.45 7.32 15.02L7.32 15.02L7.32 15.02Q6.82 15.60 6.06 15.60L6.06 15.60L6.06 15.60Q5.84 15.60 4.81 15.48L4.81 15.48L4.81 15.48Q3.78 15.36 2.63 15.36L2.63 15.36L2.63 15.36Q1.48 15.36 0.39 15.60L0.39 15.60L0.39 15.60Q0.60 14.78 1.25 14.36ZM8.88 13.13L8.88 13.13L8.88 13.13Q8.88 12.54 9.10 11.00L9.10 11.00L9.10 11.00Q9.32 9.46 9.32 8.61L9.32 8.61L9.32 8.61Q9.32 7.76 9.24 7.29L9.24 7.29L9.24 7.29Q9.55 7.27 9.81 7.27L9.81 7.27L9.81 7.27Q10.63 7.27 10.94 7.54L10.94 7.54L10.94 7.54Q11.26 7.81 11.26 8.47L11.26 8.47L11.26 8.47Q11.26 8.68 10.91 10.68L10.91 10.68L10.91 10.68Q10.57 12.67 10.56 13.96L10.56 13.96L10.56 13.96Q10.56 15.26 10.72 15.64L10.72 15.64L10.72 15.64Q9.63 15.36 9.25 14.79L9.25 14.79L9.25 14.79Q8.88 14.22 8.88 13.13ZM10.78 6.09L10.78 6.09L10.78 6.09Q9.34 6.09 9.34 5.08L9.34 5.08L9.34 5.08Q9.34 4.72 9.55 4.09L9.55 4.09L9.55 4.09Q9.94 4.03 10.23 4.03L10.23 4.03L10.23 4.03Q11.68 4.03 11.68 5.04L11.68 5.04L11.68 5.04Q11.68 5.40 11.47 6.03L11.47 6.03L11.47 6.03Q11.07 6.09 10.78 6.09ZM15.72 10.60L15.72 10.60L15.72 10.60Q15.50 11.84 15.37 12.81L15.37 12.81L15.37 12.81Q15.25 13.78 15.25 14.78L15.25 14.78L15.25 14.78Q15.25 15.79 15.44 16.23L15.44 16.23L15.44 16.23Q14.36 15.95 13.96 15.37L13.96 15.37L13.96 15.37Q13.55 14.78 13.55 13.72L13.55 13.72L13.55 13.72Q13.55 12.78 13.85 11.15L13.85 11.15L13.85 11.15Q14.14 9.52 14.22 8.95L14.22 8.95L14.22 8.95Q13.50 9.07 12.67 9.44L12.67 9.44L12.67 9.44Q12.64 9.13 12.64 8.97L12.64 8.97L12.64 8.97Q12.64 8.23 13.09 7.96L13.09 7.96L13.09 7.96Q13.54 7.69 14.38 7.67L14.38 7.67L14.38 7.67Q14.48 6.62 14.48 6.16L14.48 6.16L14.48 6.16Q14.48 5.70 14.47 5.39L14.47 5.39L14.47 5.39Q14.46 5.08 14.46 4.93L14.46 4.93L14.46 4.93Q15.39 5.03 15.81 5.48L15.81 5.48L15.81 5.48Q16.23 5.94 16.23 6.78L16.23 6.78L16.23 6.78Q16.23 7.11 16.16 7.71L16.16 7.71L16.16 7.71Q17.33 7.69 17.88 7.25L17.88 7.25L17.88 7.25Q17.91 7.53 17.91 7.67L17.91 7.67L17.91 7.67Q17.91 8.34 17.67 8.60L17.67 8.60L17.67 8.60Q17.43 8.86 16.87 8.86L16.87 8.86L16.87 8.86Q16.31 8.86 16.02 8.85L16.02 8.85L16.02 8.85Q15.95 9.35 15.72 10.60ZM21.13 10.60L21.13 10.60L21.13 10.60Q20.90 11.84 20.78 12.81L20.78 12.81L20.78 12.81Q20.65 13.78 20.65 14.78L20.65 14.78L20.65 14.78Q20.65 15.79 20.85 16.23L20.85 16.23L20.85 16.23Q19.77 15.95 19.36 15.37L19.36 15.37L19.36 15.37Q18.96 14.78 18.96 13.72L18.96 13.72L18.96 13.72Q18.96 12.78 19.25 11.15L19.25 11.15L19.25 11.15Q19.54 9.52 19.63 8.95L19.63 8.95L19.63 8.95Q18.90 9.07 18.07 9.44L18.07 9.44L18.07 9.44Q18.05 9.13 18.05 8.97L18.05 8.97L18.05 8.97Q18.05 8.23 18.49 7.96L18.49 7.96L18.49 7.96Q18.94 7.69 19.78 7.67L19.78 7.67L19.78 7.67Q19.88 6.62 19.88 6.16L19.88 6.16L19.88 6.16Q19.88 5.70 19.87 5.39L19.87 5.39L19.87 5.39Q19.87 5.08 19.87 4.93L19.87 4.93L19.87 4.93Q20.79 5.03 21.21 5.48L21.21 5.48L21.21 5.48Q21.63 5.94 21.63 6.78L21.63 6.78L21.63 6.78Q21.63 7.11 21.56 7.71L21.56 7.71L21.56 7.71Q22.74 7.69 23.28 7.25L23.28 7.25L23.28 7.25Q23.31 7.53 23.31 7.67L23.31 7.67L23.31 7.67Q23.31 8.34 23.07 8.60L23.07 8.60L23.07 8.60Q22.83 8.86 22.27 8.86L22.27 8.86L22.27 8.86Q21.71 8.86 21.42 8.85L21.42 8.85L21.42 8.85Q21.35 9.35 21.13 10.60ZM24.15 15.08L24.15 15.08Q23.98 14.80 23.94 14.54L23.94 14.54L23.94 14.54Q23.90 14.28 23.90 13.73L23.90 13.73L23.90 13.73Q23.90 13.19 24.37 9.44L24.37 9.44L24.37 9.44Q24.84 5.68 24.84 4.28L24.84 4.28L24.84 4.28Q24.84 2.88 24.67 2.46L24.67 2.46L24.67 2.46Q25.72 2.74 26.10 3.31L26.10 3.31L26.10 3.31Q26.49 3.88 26.49 4.91L26.49 4.91L26.49 4.91Q26.49 5.53 26.08 8.92L26.08 8.92L26.08 8.92Q25.68 12.31 25.68 14.38L25.68 14.38L25.68 14.38Q25.68 14.83 25.73 15.64L25.73 15.64L25.73 15.64Q24.46 15.58 24.15 15.08L24.15 15.08ZM31.22 11.98L31.22 11.98L31.22 11.98Q30.55 11.98 29.90 11.83L29.90 11.83L29.90 11.83Q29.89 11.97 29.89 12.26L29.89 12.26L29.89 12.26Q29.89 13.43 30.32 14.01L30.32 14.01L30.32 14.01Q30.76 14.60 31.36 14.60L31.36 14.60L31.36 14.60Q31.96 14.60 32.51 14.24L32.51 14.24L32.51 14.24Q33.05 13.87 33.46 13.23L33.46 13.23L33.46 13.23Q33.96 13.34 33.96 13.75L33.96 13.75L33.96 13.75Q32.73 15.64 30.79 15.64L30.79 15.64L30.79 15.64Q29.61 15.64 28.73 14.74L28.73 14.74L28.73 14.74Q27.85 13.83 27.85 12.22L27.85 12.22L27.85 12.22Q27.85 11.02 28.31 9.93L28.31 9.93L28.31 9.93Q28.77 8.85 29.78 8.10L29.78 8.10L29.78 8.10Q30.79 7.35 32.01 7.35L32.01 7.35L32.01 7.35Q33.24 7.35 33.81 7.91L33.81 7.91L33.81 7.91Q34.38 8.47 34.38 9.38L34.38 9.38L34.38 9.38Q34.38 10.70 33.47 11.34L33.47 11.34L33.47 11.34Q32.55 11.98 31.22 11.98ZM31.81 8.22L31.81 8.22L31.81 8.22Q31.09 8.22 30.60 9.10L30.60 9.10L30.60 9.10Q30.11 9.98 29.96 11.24L29.96 11.24L30.17 11.24L30.17 11.24Q31.39 11.24 31.97 10.61L31.97 10.61L31.97 10.61Q32.55 9.98 32.55 9.10L32.55 9.10L32.55 9.10Q32.55 8.74 32.36 8.48L32.36 8.48L32.36 8.48Q32.17 8.22 31.81 8.22ZM40.96 12.61L40.96 12.61L40.96 12.61Q41.26 10.64 41.42 8.82L41.42 8.82L41.42 8.82Q41.58 7 41.58 5.52L41.58 5.52L41.58 5.52Q41.58 4.03 41.38 3.57L41.38 3.57L41.38 3.57Q42.88 3.96 43.26 4.80L43.26 4.80L43.26 4.80Q44.34 4.20 45.54 4.20L45.54 4.20L45.54 4.20Q46.75 4.20 47.51 4.88L47.51 4.88L47.51 4.88Q48.27 5.56 48.27 6.53L48.27 6.53L48.27 6.53Q48.27 7.50 47.57 8.34L47.57 8.34L47.57 8.34Q46.87 9.17 45.65 9.58L45.65 9.58L45.65 9.58Q46.63 9.79 47.45 10.52L47.45 10.52L47.45 10.52Q48.27 11.26 48.27 12.33L48.27 12.33L48.27 12.33Q48.27 13.99 47.05 14.88L47.05 14.88L47.05 14.88Q45.82 15.76 43.95 15.76L43.95 15.76L43.95 15.76Q42.08 15.76 40.66 14.69L40.66 14.69L40.66 14.69Q40.67 14.57 40.96 12.61ZM46.30 6.86L46.30 6.86Q46.30 6.23 45.91 5.80L45.91 5.80L45.91 5.80Q45.51 5.38 44.80 5.38L44.80 5.38L44.80 5.38Q44.09 5.38 43.43 5.67L43.43 5.67L43.43 5.67Q43.43 6.52 43.06 9.97L43.06 9.97L43.06 9.97Q42.69 13.41 42.69 14.38L42.69 14.38L42.69 14.38Q43.30 14.63 43.88 14.63L43.88 14.63L43.88 14.63Q44.87 14.63 45.51 13.97L45.51 13.97L45.51 13.97Q46.16 13.31 46.16 12.32L46.16 12.32L46.16 12.32Q46.16 11.33 45.49 10.66L45.49 10.66L45.49 10.66Q44.81 10.00 43.61 9.94L43.61 9.94L43.57 9.44L43.57 9.44Q44.86 9.25 45.58 8.49L45.58 8.49L45.58 8.49Q46.30 7.73 46.30 6.86L46.30 6.86ZM50.33 13.13L50.33 13.13L50.33 13.13Q50.33 12.54 50.55 11.00L50.55 11.00L50.55 11.00Q50.78 9.46 50.78 8.61L50.78 8.61L50.78 8.61Q50.78 7.76 50.69 7.29L50.69 7.29L50.69 7.29Q51.00 7.27 51.27 7.27L51.27 7.27L51.27 7.27Q52.08 7.27 52.40 7.54L52.40 7.54L52.40 7.54Q52.71 7.81 52.71 8.47L52.71 8.47L52.71 8.47Q52.71 8.68 52.37 10.68L52.37 10.68L52.37 10.68Q52.02 12.67 52.02 13.96L52.02 13.96L52.02 13.96Q52.01 15.26 52.18 15.64L52.18 15.64L52.18 15.64Q51.09 15.36 50.71 14.79L50.71 14.79L50.71 14.79Q50.33 14.22 50.33 13.13ZM52.23 6.09L52.23 6.09L52.23 6.09Q50.79 6.09 50.79 5.08L50.79 5.08L50.79 5.08Q50.79 4.72 51.00 4.09L51.00 4.09L51.00 4.09Q51.39 4.03 51.69 4.03L51.69 4.03L51.69 4.03Q53.13 4.03 53.13 5.04L53.13 5.04L53.13 5.04Q53.13 5.40 52.92 6.03L52.92 6.03L52.92 6.03Q52.53 6.09 52.23 6.09ZM57.18 10.60L57.18 10.60L57.18 10.60Q56.95 11.84 56.83 12.81L56.83 12.81L56.83 12.81Q56.70 13.78 56.70 14.78L56.70 14.78L56.70 14.78Q56.70 15.79 56.90 16.23L56.90 16.23L56.90 16.23Q55.82 15.95 55.41 15.37L55.41 15.37L55.41 15.37Q55.01 14.78 55.01 13.72L55.01 13.72L55.01 13.72Q55.01 12.78 55.30 11.15L55.30 11.15L55.30 11.15Q55.59 9.52 55.68 8.95L55.68 8.95L55.68 8.95Q54.95 9.07 54.12 9.44L54.12 9.44L54.12 9.44Q54.10 9.13 54.10 8.97L54.10 8.97L54.10 8.97Q54.10 8.23 54.54 7.96L54.54 7.96L54.54 7.96Q54.99 7.69 55.83 7.67L55.83 7.67L55.83 7.67Q55.93 6.62 55.93 6.16L55.93 6.16L55.93 6.16Q55.93 5.70 55.92 5.39L55.92 5.39L55.92 5.39Q55.92 5.08 55.92 4.93L55.92 4.93L55.92 4.93Q56.84 5.03 57.26 5.48L57.26 5.48L57.26 5.48Q57.68 5.94 57.68 6.78L57.68 6.78L57.68 6.78Q57.68 7.11 57.61 7.71L57.61 7.71L57.61 7.71Q58.79 7.69 59.33 7.25L59.33 7.25L59.33 7.25Q59.36 7.53 59.36 7.67L59.36 7.67L59.36 7.67Q59.36 8.34 59.12 8.60L59.12 8.60L59.12 8.60Q58.88 8.86 58.32 8.86L58.32 8.86L58.32 8.86Q57.76 8.86 57.47 8.85L57.47 8.85L57.47 8.85Q57.40 9.35 57.18 10.60ZM62.99 8.18L62.99 8.18L62.99 8.18Q62.59 8.18 62.29 8.44L62.29 8.44L62.29 8.44Q61.98 8.69 61.98 9.17L61.98 9.17L61.98 9.17Q61.98 9.65 62.31 10.07L62.31 10.07L62.31 10.07Q62.64 10.49 63.11 10.80L63.11 10.80L63.11 10.80Q63.59 11.12 64.07 11.45L64.07 11.45L64.07 11.45Q64.55 11.77 64.92 12.26L64.92 12.26L64.92 12.26Q65.28 12.74 65.32 13.33L65.32 13.33L65.32 13.33Q65.32 14.34 64.46 15.02L64.46 15.02L64.46 15.02Q63.59 15.71 62.30 15.71L62.30 15.71L62.30 15.71Q61.01 15.71 60.28 15.19L60.28 15.19L60.28 15.19Q59.54 14.67 59.54 14L59.54 14L59.54 14Q59.54 13.33 59.96 12.92L59.96 12.92L59.96 12.92Q60.37 12.50 60.98 12.50L60.98 12.50L60.98 12.50Q61.31 12.50 61.59 12.61L61.59 12.61L61.59 12.61Q61.14 13.09 61.14 13.62L61.14 13.62L61.14 13.62Q61.14 14.15 61.43 14.48L61.43 14.48L61.43 14.48Q61.73 14.80 62.23 14.80L62.23 14.80L62.23 14.80Q62.73 14.80 63.08 14.54L63.08 14.54L63.08 14.54Q63.42 14.28 63.42 13.87L63.42 13.87L63.42 13.87Q63.42 13.45 63.18 13.13L63.18 13.13L63.18 13.13Q62.94 12.81 62.59 12.57L62.59 12.57L62.59 12.57Q62.23 12.32 61.81 12.01L61.81 12.01L61.81 12.01Q61.39 11.70 61.03 11.39L61.03 11.39L61.03 11.39Q60.68 11.07 60.44 10.59L60.44 10.59L60.44 10.59Q60.20 10.11 60.20 9.53L60.20 9.53L60.20 9.53Q60.20 8.54 61.02 7.90L61.02 7.90L61.02 7.90Q61.84 7.27 63.06 7.27L63.06 7.27L63.06 7.27Q64.29 7.27 64.86 7.74L64.86 7.74L64.86 7.74Q65.42 8.22 65.42 8.86L65.42 8.86L65.42 8.86Q65.42 9.49 65.02 9.94L65.02 9.94L65.02 9.94Q64.62 10.39 63.99 10.39L63.99 10.39L63.99 10.39Q63.69 10.39 63.29 10.26L63.29 10.26L63.29 10.26Q63.60 10.00 63.77 9.65L63.77 9.65L63.77 9.65Q63.94 9.31 63.94 8.97L63.94 8.97L63.94 8.97Q63.94 8.64 63.66 8.41L63.66 8.41L63.66 8.41Q63.38 8.18 62.99 8.18ZM72.81 17.14L72.81 17.14L72.81 17.14Q72.81 16.34 72.92 13.95L72.92 13.95L72.92 13.95Q73.02 11.56 73.02 10.07L73.02 10.07L73.02 10.07Q73.02 4.91 72.83 3.29L72.83 3.29L72.83 3.29Q73.91 3.29 74.40 3.51L74.40 3.51L74.40 3.51Q74.89 3.72 74.89 4.19L74.89 4.19L74.89 4.19Q74.89 4.97 74.78 6.76L74.78 6.76L74.78 6.76Q74.68 8.55 74.68 10.07L74.68 10.07L74.68 10.07Q74.68 16.52 74.87 18.03L74.87 18.03L74.87 18.03Q73.79 18.03 73.30 17.82L73.30 17.82L73.30 17.82Q72.81 17.60 72.81 17.14ZM82.91 14.36L82.91 14.36L82.91 14.36Q82.84 14.08 82.84 13.59L82.84 13.59L82.84 13.59Q82.84 13.09 83.13 10.92L83.13 10.92L83.13 10.92Q83.65 7.32 83.65 5.35L83.65 5.35L83.65 5.35Q83.65 4.93 83.59 4.20L83.59 4.20L83.59 4.20Q84.66 4.26 85.15 4.54L85.15 4.54L85.15 4.54Q85.36 4.65 85.47 4.88L85.47 4.88L85.47 4.88Q85.58 5.11 85.60 5.31L85.60 5.31L85.60 5.31Q85.62 5.50 85.62 6.02L85.62 6.02L85.62 6.02Q85.62 6.54 85.20 9.42L85.20 9.42L85.20 9.42Q84.77 12.29 84.70 13.94L84.70 13.94L84.70 13.94Q88.02 13.94 89.61 13.41L89.61 13.41L89.61 13.41Q89.49 14.45 88.98 15.02L88.98 15.02L88.98 15.02Q88.48 15.60 87.72 15.60L87.72 15.60L87.72 15.60Q87.50 15.60 86.47 15.48L86.47 15.48L86.47 15.48Q85.44 15.36 84.29 15.36L84.29 15.36L84.29 15.36Q83.15 15.36 82.05 15.60L82.05 15.60L82.05 15.60Q82.26 14.78 82.91 14.36ZM90.54 13.13L90.54 13.13L90.54 13.13Q90.54 12.54 90.76 11.00L90.76 11.00L90.76 11.00Q90.99 9.46 90.99 8.61L90.99 8.61L90.99 8.61Q90.99 7.76 90.90 7.29L90.90 7.29L90.90 7.29Q91.21 7.27 91.48 7.27L91.48 7.27L91.48 7.27Q92.29 7.27 92.60 7.54L92.60 7.54L92.60 7.54Q92.92 7.81 92.92 8.47L92.92 8.47L92.92 8.47Q92.92 8.68 92.58 10.68L92.58 10.68L92.58 10.68Q92.23 12.67 92.23 13.96L92.23 13.96L92.23 13.96Q92.22 15.26 92.39 15.64L92.39 15.64L92.39 15.64Q91.29 15.36 90.92 14.79L90.92 14.79L90.92 14.79Q90.54 14.22 90.54 13.13ZM92.44 6.09L92.44 6.09L92.44 6.09Q91.00 6.09 91.00 5.08L91.00 5.08L91.00 5.08Q91.00 4.72 91.21 4.09L91.21 4.09L91.21 4.09Q91.60 4.03 91.90 4.03L91.90 4.03L91.90 4.03Q93.34 4.03 93.34 5.04L93.34 5.04L93.34 5.04Q93.34 5.40 93.13 6.03L93.13 6.03L93.13 6.03Q92.74 6.09 92.44 6.09ZM97.38 10.60L97.38 10.60L97.38 10.60Q97.16 11.84 97.03 12.81L97.03 12.81L97.03 12.81Q96.91 13.78 96.91 14.78L96.91 14.78L96.91 14.78Q96.91 15.79 97.10 16.23L97.10 16.23L97.10 16.23Q96.03 15.95 95.62 15.37L95.62 15.37L95.62 15.37Q95.21 14.78 95.21 13.72L95.21 13.72L95.21 13.72Q95.21 12.78 95.51 11.15L95.51 11.15L95.51 11.15Q95.80 9.52 95.89 8.95L95.89 8.95L95.89 8.95Q95.16 9.07 94.33 9.44L94.33 9.44L94.33 9.44Q94.30 9.13 94.30 8.97L94.30 8.97L94.30 8.97Q94.30 8.23 94.75 7.96L94.75 7.96L94.75 7.96Q95.20 7.69 96.04 7.67L96.04 7.67L96.04 7.67Q96.14 6.62 96.14 6.16L96.14 6.16L96.14 6.16Q96.14 5.70 96.13 5.39L96.13 5.39L96.13 5.39Q96.12 5.08 96.12 4.93L96.12 4.93L96.12 4.93Q97.05 5.03 97.47 5.48L97.47 5.48L97.47 5.48Q97.89 5.94 97.89 6.78L97.89 6.78L97.89 6.78Q97.89 7.11 97.82 7.71L97.82 7.71L97.82 7.71Q98.99 7.69 99.54 7.25L99.54 7.25L99.54 7.25Q99.57 7.53 99.57 7.67L99.57 7.67L99.57 7.67Q99.57 8.34 99.33 8.60L99.33 8.60L99.33 8.60Q99.09 8.86 98.53 8.86L98.53 8.86L98.53 8.86Q97.97 8.86 97.68 8.85L97.68 8.85L97.68 8.85Q97.61 9.35 97.38 10.60ZM102.79 10.60L102.79 10.60L102.79 10.60Q102.56 11.84 102.44 12.81L102.44 12.81L102.44 12.81Q102.31 13.78 102.31 14.78L102.31 14.78L102.31 14.78Q102.31 15.79 102.51 16.23L102.51 16.23L102.51 16.23Q101.43 15.95 101.02 15.37L101.02 15.37L101.02 15.37Q100.62 14.78 100.62 13.72L100.62 13.72L100.62 13.72Q100.62 12.78 100.91 11.15L100.91 11.15L100.91 11.15Q101.21 9.52 101.29 8.95L101.29 8.95L101.29 8.95Q100.56 9.07 99.74 9.44L99.74 9.44L99.74 9.44Q99.71 9.13 99.71 8.97L99.71 8.97L99.71 8.97Q99.71 8.23 100.16 7.96L100.16 7.96L100.16 7.96Q100.60 7.69 101.44 7.67L101.44 7.67L101.44 7.67Q101.54 6.62 101.54 6.16L101.54 6.16L101.54 6.16Q101.54 5.70 101.54 5.39L101.54 5.39L101.54 5.39Q101.53 5.08 101.53 4.93L101.53 4.93L101.53 4.93Q102.45 5.03 102.87 5.48L102.87 5.48L102.87 5.48Q103.29 5.94 103.29 6.78L103.29 6.78L103.29 6.78Q103.29 7.11 103.22 7.71L103.22 7.71L103.22 7.71Q104.40 7.69 104.94 7.25L104.94 7.25L104.94 7.25Q104.97 7.53 104.97 7.67L104.97 7.67L104.97 7.67Q104.97 8.34 104.73 8.60L104.73 8.60L104.73 8.60Q104.50 8.86 103.94 8.86L103.94 8.86L103.94 8.86Q103.38 8.86 103.08 8.85L103.08 8.85L103.08 8.85Q103.01 9.35 102.79 10.60ZM105.81 15.08L105.81 15.08Q105.64 14.80 105.60 14.54L105.60 14.54L105.60 14.54Q105.56 14.28 105.56 13.73L105.56 13.73L105.56 13.73Q105.56 13.19 106.03 9.44L106.03 9.44L106.03 9.44Q106.50 5.68 106.50 4.28L106.50 4.28L106.50 4.28Q106.50 2.88 106.33 2.46L106.33 2.46L106.33 2.46Q107.38 2.74 107.77 3.31L107.77 3.31L107.77 3.31Q108.15 3.88 108.15 4.91L108.15 4.91L108.15 4.91Q108.15 5.53 107.74 8.92L107.74 8.92L107.74 8.92Q107.34 12.31 107.34 14.38L107.34 14.38L107.34 14.38Q107.34 14.83 107.39 15.64L107.39 15.64L107.39 15.64Q106.12 15.58 105.81 15.08L105.81 15.08ZM112.88 11.98L112.88 11.98L112.88 11.98Q112.21 11.98 111.57 11.83L111.57 11.83L111.57 11.83Q111.55 11.97 111.55 12.26L111.55 12.26L111.55 12.26Q111.55 13.43 111.99 14.01L111.99 14.01L111.99 14.01Q112.42 14.60 113.02 14.60L113.02 14.60L113.02 14.60Q113.62 14.60 114.17 14.24L114.17 14.24L114.17 14.24Q114.72 13.87 115.12 13.23L115.12 13.23L115.12 13.23Q115.63 13.34 115.63 13.75L115.63 13.75L115.63 13.75Q114.39 15.64 112.45 15.64L112.45 15.64L112.45 15.64Q111.27 15.64 110.39 14.74L110.39 14.74L110.39 14.74Q109.51 13.83 109.51 12.22L109.51 12.22L109.51 12.22Q109.51 11.02 109.97 9.93L109.97 9.93L109.97 9.93Q110.43 8.85 111.44 8.10L111.44 8.10L111.44 8.10Q112.45 7.35 113.67 7.35L113.67 7.35L113.67 7.35Q114.90 7.35 115.47 7.91L115.47 7.91L115.47 7.91Q116.05 8.47 116.05 9.38L116.05 9.38L116.05 9.38Q116.05 10.70 115.13 11.34L115.13 11.34L115.13 11.34Q114.21 11.98 112.88 11.98ZM113.47 8.22L113.47 8.22L113.47 8.22Q112.76 8.22 112.27 9.10L112.27 9.10L112.27 9.10Q111.78 9.98 111.62 11.24L111.62 11.24L111.83 11.24L111.83 11.24Q113.05 11.24 113.63 10.61L113.63 10.61L113.63 10.61Q114.21 9.98 114.21 9.10L114.21 9.10L114.21 9.10Q114.21 8.74 114.02 8.48L114.02 8.48L114.02 8.48Q113.83 8.22 113.47 8.22ZM120.99 14.81L120.99 14.81L120.99 14.81Q120.99 14.55 121.80 12.82L121.80 12.82L121.80 12.82Q122.61 11.10 123.64 8.91L123.64 8.91L123.64 8.91Q124.67 6.72 125.03 5.73L125.03 5.73L125.29 5.04L125.29 5.04Q125.17 4.84 124.74 4.33L124.74 4.33L124.74 4.33Q125.24 4.16 125.62 4.16L125.62 4.16L125.62 4.16Q125.99 4.16 126.23 4.21L126.23 4.21L126.23 4.21Q126.48 4.27 126.67 4.40L126.67 4.40L126.67 4.40Q126.85 4.54 127.00 4.68L127.00 4.68L127.00 4.68Q127.15 4.82 127.27 5.09L127.27 5.09L127.27 5.09Q127.40 5.36 127.48 5.58L127.48 5.58L127.48 5.58Q127.57 5.80 127.67 6.19L127.67 6.19L127.67 6.19Q127.78 6.58 127.84 6.87L127.84 6.87L127.84 6.87Q127.90 7.15 128.01 7.67L128.01 7.67L128.01 7.67Q128.11 8.18 128.23 8.65L128.23 8.65L128.23 8.65Q128.34 9.13 128.62 10.46L128.62 10.46L128.62 10.46Q128.90 11.80 129.06 12.47L129.06 12.47L129.06 12.47Q129.22 13.13 129.52 13.96L129.52 13.96L129.52 13.96Q129.82 14.78 130.16 15.26L130.16 15.26L130.16 15.26Q129.35 15.65 128.84 15.65L128.84 15.65L128.84 15.65Q128.34 15.65 128.10 15.39L128.10 15.39L128.10 15.39Q127.86 15.13 127.69 14.61L127.69 14.61L127.69 14.61Q127.53 14.08 127.04 11.79L127.04 11.79L127.04 11.79Q126.71 12.07 125.99 12.10L125.99 12.10L123.59 12.18L123.59 12.18Q122.74 14.27 122.33 15.89L122.33 15.89L122.33 15.89Q120.99 15.41 120.99 14.81ZM125.93 6.90L125.93 6.90L125.93 6.90Q125.73 7.35 125.07 8.81L125.07 8.81L125.07 8.81Q124.40 10.28 124.04 11.14L124.04 11.14L126.91 11.14L126.91 11.14Q126.25 8.12 125.93 6.90ZM132.87 12.60L132.87 12.60L132.87 12.60Q132.87 14.27 133.88 14.27L133.88 14.27L133.88 14.27Q134.41 14.27 134.92 13.69L134.92 13.69L134.92 13.69Q135.42 13.12 135.74 12.15L135.74 12.15L135.74 12.15Q136.05 11.19 136.28 10.09L136.28 10.09L136.28 10.09Q136.51 8.99 136.63 7.76L136.63 7.76L136.63 7.76Q136.82 5.38 136.82 4.04L136.82 4.04L136.82 4.04Q136.82 2.70 136.71 2.03L136.71 2.03L136.71 2.03Q137.72 2.25 138.12 2.98L138.12 2.98L138.12 2.98Q138.53 3.71 138.53 4.82L138.53 4.82L138.53 4.82Q138.53 5.92 138.06 8.93L138.06 8.93L138.06 8.93Q137.59 11.94 137.59 13.33L137.59 13.33L137.59 13.33Q137.59 14.71 137.72 15.68L137.72 15.68L137.72 15.68Q136.72 15.41 136.35 14.72L136.35 14.72L136.35 14.72Q135.98 14.03 135.98 12.98L135.98 12.98L135.98 12.98Q135.55 14.18 134.68 14.88L134.68 14.88L134.68 14.88Q133.81 15.58 132.89 15.58L132.89 15.58L132.89 15.58Q131.96 15.58 131.38 14.88L131.38 14.88L131.38 14.88Q130.80 14.17 130.80 12.80L130.80 12.80L130.80 12.80Q130.80 10.63 131.99 9.07L131.99 9.07L131.99 9.07Q133.18 7.50 134.81 7.50L134.81 7.50L134.81 7.50Q135.27 7.50 136.26 7.73L136.26 7.73L136.26 7.73Q135.39 7.95 134.72 8.51L134.72 8.51L134.72 8.51Q134.04 9.06 133.66 9.77L133.66 9.77L133.66 9.77Q132.87 11.19 132.87 12.60ZM142.65 15.43L142.65 15.43L142.65 15.43Q142.20 15.62 141.71 15.62L141.71 15.62L141.71 15.62Q141.22 15.62 141.16 15.41L141.16 15.41L141.16 15.41Q140.94 14.52 140.64 12.73L140.64 12.73L140.64 12.73Q140.35 10.95 140.05 9.61L140.05 9.61L140.05 9.61Q139.75 8.27 139.33 7.59L139.33 7.59L139.33 7.59Q140.10 7.22 140.56 7.22L140.56 7.22L140.56 7.22Q141.02 7.22 141.26 7.43L141.26 7.43L141.26 7.43Q141.50 7.64 141.66 8.27L141.66 8.27L141.66 8.27Q141.82 8.89 141.89 9.30L141.89 9.30L141.89 9.30Q142.09 10.64 142.09 10.79L142.09 10.79L142.09 10.79Q142.09 10.95 142.20 12.05L142.20 12.05L142.20 12.05Q142.31 13.15 142.37 13.50L142.37 13.50L142.37 13.50Q144.86 8.67 144.86 7.04L144.86 7.04L144.86 7.04Q146.01 7.63 146.01 8.32L146.01 8.32L146.01 8.32Q146.01 8.88 145.43 9.98L145.43 9.98L145.43 9.98Q144.84 11.07 143.97 12.64L143.97 12.64L143.97 12.64Q143.09 14.20 142.65 15.43ZM150.22 11.98L150.22 11.98L150.22 11.98Q149.55 11.98 148.90 11.83L148.90 11.83L148.90 11.83Q148.89 11.97 148.89 12.26L148.89 12.26L148.89 12.26Q148.89 13.43 149.32 14.01L149.32 14.01L149.32 14.01Q149.76 14.60 150.36 14.60L150.36 14.60L150.36 14.60Q150.96 14.60 151.51 14.24L151.51 14.24L151.51 14.24Q152.05 13.87 152.46 13.23L152.46 13.23L152.46 13.23Q152.96 13.34 152.96 13.75L152.96 13.75L152.96 13.75Q151.73 15.64 149.79 15.64L149.79 15.64L149.79 15.64Q148.61 15.64 147.73 14.74L147.73 14.74L147.73 14.74Q146.85 13.83 146.85 12.22L146.85 12.22L146.85 12.22Q146.85 11.02 147.31 9.93L147.31 9.93L147.31 9.93Q147.77 8.85 148.78 8.10L148.78 8.10L148.78 8.10Q149.79 7.35 151.01 7.35L151.01 7.35L151.01 7.35Q152.24 7.35 152.81 7.91L152.81 7.91L152.81 7.91Q153.38 8.47 153.38 9.38L153.38 9.38L153.38 9.38Q153.38 10.70 152.47 11.34L152.47 11.34L152.47 11.34Q151.55 11.98 150.22 11.98ZM150.81 8.22L150.81 8.22L150.81 8.22Q150.09 8.22 149.60 9.10L149.60 9.10L149.60 9.10Q149.11 9.98 148.96 11.24L148.96 11.24L149.17 11.24L149.17 11.24Q150.39 11.24 150.97 10.61L150.97 10.61L150.97 10.61Q151.55 9.98 151.55 9.10L151.55 9.10L151.55 9.10Q151.55 8.74 151.36 8.48L151.36 8.48L151.36 8.48Q151.17 8.22 150.81 8.22ZM160.26 7.35L160.26 7.35L160.26 7.35Q161.08 7.35 161.44 7.86L161.44 7.86L161.44 7.86Q161.80 8.37 161.80 9.25L161.80 9.25L161.80 9.25Q161.80 10.12 161.53 11.70L161.53 11.70L161.53 11.70Q161.25 13.29 161.25 14.01L161.25 14.01L161.25 14.01Q161.25 14.73 161.43 15.06L161.43 15.06L161.43 15.06Q161.62 15.39 162.05 15.62L162.05 15.62L162.05 15.62Q161.87 15.64 161.53 15.64L161.53 15.64L161.53 15.64Q160.36 15.64 159.86 15.27L159.86 15.27L159.86 15.27Q159.36 14.91 159.36 14L159.36 14L159.36 14Q159.36 13.48 159.64 11.98L159.64 11.98L159.64 11.98Q159.92 10.47 159.92 9.73L159.92 9.73L159.92 9.73Q159.92 8.81 159.36 8.81L159.36 8.81L159.36 8.81Q159.04 8.81 158.63 9.18L158.63 9.18L158.63 9.18Q158.23 9.56 157.85 10.21L157.85 10.21L157.85 10.21Q157.47 10.86 157.22 11.89L157.22 11.89L157.22 11.89Q156.97 12.91 156.97 13.92L156.97 13.92L156.97 13.92Q156.97 14.94 157.05 15.43L157.05 15.43L157.05 15.43Q156.60 15.46 156.46 15.46L156.46 15.46L156.46 15.46Q155.67 15.46 155.32 15.18L155.32 15.18L155.32 15.18Q154.97 14.90 154.97 14.25L154.97 14.25L154.97 14.25Q154.97 13.97 155.26 12.10L155.26 12.10L155.26 12.10Q155.55 10.22 155.55 9.11L155.55 9.11L155.55 9.11Q155.55 7.99 155.32 7.06L155.32 7.06L155.32 7.06Q156.34 7.38 156.74 7.97L156.74 7.97L156.74 7.97Q157.15 8.57 157.15 9.33L157.15 9.33L157.15 9.33Q157.15 10.09 156.98 11.10L156.98 11.10L156.98 11.10Q157.44 9.53 158.44 8.44L158.44 8.44L158.44 8.44Q159.43 7.35 160.26 7.35ZM166.32 10.60L166.32 10.60L166.32 10.60Q166.10 11.84 165.97 12.81L165.97 12.81L165.97 12.81Q165.84 13.78 165.84 14.78L165.84 14.78L165.84 14.78Q165.84 15.79 166.04 16.23L166.04 16.23L166.04 16.23Q164.96 15.95 164.56 15.37L164.56 15.37L164.56 15.37Q164.15 14.78 164.15 13.72L164.15 13.72L164.15 13.72Q164.15 12.78 164.44 11.15L164.44 11.15L164.44 11.15Q164.74 9.52 164.82 8.95L164.82 8.95L164.82 8.95Q164.09 9.07 163.27 9.44L163.27 9.44L163.27 9.44Q163.24 9.13 163.24 8.97L163.24 8.97L163.24 8.97Q163.24 8.23 163.69 7.96L163.69 7.96L163.69 7.96Q164.14 7.69 164.98 7.67L164.98 7.67L164.98 7.67Q165.07 6.62 165.07 6.16L165.07 6.16L165.07 6.16Q165.07 5.70 165.07 5.39L165.07 5.39L165.07 5.39Q165.06 5.08 165.06 4.93L165.06 4.93L165.06 4.93Q165.98 5.03 166.40 5.48L166.40 5.48L166.40 5.48Q166.82 5.94 166.82 6.78L166.82 6.78L166.82 6.78Q166.82 7.11 166.75 7.71L166.75 7.71L166.75 7.71Q167.93 7.69 168.48 7.25L168.48 7.25L168.48 7.25Q168.50 7.53 168.50 7.67L168.50 7.67L168.50 7.67Q168.50 8.34 168.27 8.60L168.27 8.60L168.27 8.60Q168.03 8.86 167.47 8.86L167.47 8.86L167.47 8.86Q166.91 8.86 166.61 8.85L166.61 8.85L166.61 8.85Q166.54 9.35 166.32 10.60ZM174.24 7.32L174.24 7.32L174.24 7.32Q174.97 7.32 175.35 7.59L175.35 7.59L175.35 7.59Q175.73 7.85 175.73 8.57L175.73 8.57L175.73 8.57Q175.73 8.79 175.46 10.54L175.46 10.54L175.46 10.54Q175.20 12.28 175.20 13.52L175.20 13.52L175.20 13.52Q175.20 14.77 175.46 15.72L175.46 15.72L175.46 15.72Q174.41 15.39 174.01 14.77L174.01 14.77L174.01 14.77Q173.60 14.15 173.60 13.24L173.60 13.24L173.60 13.24Q173.60 12.89 173.75 11.66L173.75 11.66L173.75 11.66Q173.32 13.26 172.43 14.34L172.43 14.34L172.43 14.34Q171.54 15.43 170.76 15.43L170.76 15.43L170.76 15.43Q169.15 15.43 169.15 13.10L169.15 13.10L169.15 13.10Q169.15 12.33 169.38 10.96L169.38 10.96L169.38 10.96Q169.61 9.58 169.61 8.86L169.61 8.86L169.61 8.86Q169.61 8.15 169.41 7.42L169.41 7.42L169.41 7.42Q170.58 7.42 171.10 7.72L171.10 7.72L171.10 7.72Q171.63 8.02 171.63 8.92L171.63 8.92L171.63 8.92Q171.63 9.39 171.33 10.81L171.33 10.81L171.33 10.81Q171.04 12.22 171.04 12.94L171.04 12.94L171.04 12.94Q171.04 13.97 171.60 13.97L171.60 13.97L171.60 13.97Q171.88 13.97 172.24 13.59L172.24 13.59L172.24 13.59Q172.61 13.20 172.94 12.57L172.94 12.57L172.94 12.57Q173.28 11.93 173.51 10.97L173.51 10.97L173.51 10.97Q173.74 10.01 173.74 9.02L173.74 9.02L173.74 9.02Q173.74 8.04 173.66 7.35L173.66 7.35L173.66 7.35Q174.08 7.32 174.24 7.32ZM179.68 10.88L179.68 10.88Q180.18 9.06 180.89 8.20L180.89 8.20L180.89 8.20Q181.59 7.34 182.20 7.34L182.20 7.34L182.20 7.34Q182.81 7.34 183.12 7.79L183.12 7.79L183.12 7.79Q183.43 8.25 183.43 8.97L183.43 8.97L183.43 8.97Q183.43 9.69 183.00 10.29L183.00 10.29L183.00 10.29Q182.57 10.89 181.83 10.89L181.83 10.89L181.83 10.89Q181.64 10.89 181.37 10.78L181.37 10.78L181.37 10.78Q181.80 10.23 181.80 9.46L181.80 9.46L181.80 9.46Q181.80 9.02 181.44 9.02L181.44 9.02L181.44 9.02Q181.17 9.02 180.87 9.39L180.87 9.39L180.87 9.39Q180.56 9.76 180.28 10.41L180.28 10.41L180.28 10.41Q180.00 11.06 179.81 12.08L179.81 12.08L179.81 12.08Q179.62 13.09 179.62 14.24L179.62 14.24L179.62 14.24Q179.62 14.38 179.69 15.43L179.69 15.43L179.69 15.43Q179.24 15.46 179.12 15.46L179.12 15.46L179.12 15.46Q178.32 15.46 177.97 15.18L177.97 15.18L177.97 15.18Q177.62 14.90 177.62 14.25L177.62 14.25L177.62 14.25Q177.62 13.97 177.91 12.10L177.91 12.10L177.91 12.10Q178.21 10.22 178.21 9.11L178.21 9.11L178.21 9.11Q178.21 7.99 177.97 7.06L177.97 7.06L177.97 7.06Q178.99 7.38 179.40 7.97L179.40 7.97L179.40 7.97Q179.80 8.57 179.80 9.36L179.80 9.36L179.80 9.36Q179.80 10.15 179.68 10.88L179.68 10.88ZM187.19 11.98L187.19 11.98L187.19 11.98Q186.52 11.98 185.88 11.83L185.88 11.83L185.88 11.83Q185.86 11.97 185.86 12.26L185.86 12.26L185.86 12.26Q185.86 13.43 186.30 14.01L186.30 14.01L186.30 14.01Q186.73 14.60 187.33 14.60L187.33 14.60L187.33 14.60Q187.94 14.60 188.48 14.24L188.48 14.24L188.48 14.24Q189.03 13.87 189.43 13.23L189.43 13.23L189.43 13.23Q189.94 13.34 189.94 13.75L189.94 13.75L189.94 13.75Q188.71 15.64 186.76 15.64L186.76 15.64L186.76 15.64Q185.58 15.64 184.70 14.74L184.70 14.74L184.70 14.74Q183.82 13.83 183.82 12.22L183.82 12.22L183.82 12.22Q183.82 11.02 184.28 9.93L184.28 9.93L184.28 9.93Q184.74 8.85 185.75 8.10L185.75 8.10L185.75 8.10Q186.76 7.35 187.99 7.35L187.99 7.35L187.99 7.35Q189.21 7.35 189.78 7.91L189.78 7.91L189.78 7.91Q190.36 8.47 190.36 9.38L190.36 9.38L190.36 9.38Q190.36 10.70 189.44 11.34L189.44 11.34L189.44 11.34Q188.52 11.98 187.19 11.98ZM187.78 8.22L187.78 8.22L187.78 8.22Q187.07 8.22 186.58 9.10L186.58 9.10L186.58 9.10Q186.09 9.98 185.93 11.24L185.93 11.24L186.14 11.24L186.14 11.24Q187.36 11.24 187.94 10.61L187.94 10.61L187.94 10.61Q188.52 9.98 188.52 9.10L188.52 9.10L188.52 9.10Q188.52 8.74 188.34 8.48L188.34 8.48L188.34 8.48Q188.15 8.22 187.78 8.22ZM194.94 8.18L194.94 8.18L194.94 8.18Q194.54 8.18 194.24 8.44L194.24 8.44L194.24 8.44Q193.93 8.69 193.93 9.17L193.93 9.17L193.93 9.17Q193.93 9.65 194.26 10.07L194.26 10.07L194.26 10.07Q194.59 10.49 195.06 10.80L195.06 10.80L195.06 10.80Q195.54 11.12 196.02 11.45L196.02 11.45L196.02 11.45Q196.50 11.77 196.87 12.26L196.87 12.26L196.87 12.26Q197.23 12.74 197.27 13.33L197.27 13.33L197.27 13.33Q197.27 14.34 196.41 15.02L196.41 15.02L196.41 15.02Q195.54 15.71 194.25 15.71L194.25 15.71L194.25 15.71Q192.96 15.71 192.23 15.19L192.23 15.19L192.23 15.19Q191.49 14.67 191.49 14L191.49 14L191.49 14Q191.49 13.33 191.91 12.92L191.91 12.92L191.91 12.92Q192.32 12.50 192.93 12.50L192.93 12.50L192.93 12.50Q193.26 12.50 193.54 12.61L193.54 12.61L193.54 12.61Q193.09 13.09 193.09 13.62L193.09 13.62L193.09 13.62Q193.09 14.15 193.38 14.48L193.38 14.48L193.38 14.48Q193.68 14.80 194.18 14.80L194.18 14.80L194.18 14.80Q194.68 14.80 195.03 14.54L195.03 14.54L195.03 14.54Q195.37 14.28 195.37 13.87L195.37 13.87L195.37 13.87Q195.37 13.45 195.13 13.13L195.13 13.13L195.13 13.13Q194.89 12.81 194.54 12.57L194.54 12.57L194.54 12.57Q194.18 12.32 193.76 12.01L193.76 12.01L193.76 12.01Q193.34 11.70 192.98 11.39L192.98 11.39L192.98 11.39Q192.63 11.07 192.39 10.59L192.39 10.59L192.39 10.59Q192.15 10.11 192.15 9.53L192.15 9.53L192.15 9.53Q192.15 8.54 192.97 7.90L192.97 7.90L192.97 7.90Q193.79 7.27 195.01 7.27L195.01 7.27L195.01 7.27Q196.24 7.27 196.81 7.74L196.81 7.74L196.81 7.74Q197.37 8.22 197.37 8.86L197.37 8.86L197.37 8.86Q197.37 9.49 196.97 9.94L196.97 9.94L196.97 9.94Q196.57 10.39 195.94 10.39L195.94 10.39L195.94 10.39Q195.64 10.39 195.24 10.26L195.24 10.26L195.24 10.26Q195.55 10.00 195.72 9.65L195.72 9.65L195.72 9.65Q195.89 9.31 195.89 8.97L195.89 8.97L195.89 8.97Q195.89 8.64 195.61 8.41L195.61 8.41L195.61 8.41Q195.33 8.18 194.94 8.18Z"></path></g><!----><g data-v-423bf9ae="" id="ff35efb8-40e9-40d3-89a2-7c03cd7c3dce" transform="matrix(1,0,0,1,-5,-5)" stroke="none" fill="white"><path d="M60.4 84.4c-9.2 2.7-18.3 4.2-27.2 4.2-2.4 0-4.6-.1-6.9-.3 6.9 4.3 15 6.7 23.7 6.7 17.2 0 32.3-9.8 39.8-24-.5-.1-.9-.3-1.2-.5-7.7 5.7-17.3 10.7-28.2 13.9zM42 23.6c4.7-1.4 9.5-2.4 14.1-2.8.5-2.3 2.5-4 4.9-4s4.3 1.6 4.8 3.8c11.1.6 19.8 4.2 24.6 9.9-2.9-6.1-7.1-11.3-12.2-15.4-3.6-.6-7.5-.9-11.6-.9-8.6 0-17.4 1.3-26.3 4.1-13.4 3.9-25.1 10.6-33.2 18.2C5.8 40.8 5 45.3 5 50c0 2.1.2 4.2.5 6.3C7 43.4 21.7 29.7 42 23.6zm16.1 52.8c-7 2.1-13.9 3.2-20.7 3.2-12.6 0-22.5-3.7-27.9-10 2.9 6.1 7.1 11.3 12.2 15.4 3.6.6 7.5.9 11.6.9 8.6 0 17.4-1.3 26.3-4.1C70 78.7 79.2 74 86.7 68.6c-.5-.8-.7-1.6-.7-2.6 0-2.7 2.3-5 5-5 .9 0 1.7.2 2.5.7C94.5 58 95 54.1 95 50c0-2.1-.2-4.2-.5-6.3-1.4 12.9-16.1 26.5-36.4 32.7zM20.5 61.3c.4-.1.8-.2 1.2-.2 2.7 0 5 2.3 5 5 0 .4-.1.8-.1 1.1 3.7 1.9 8.5 3 14.2 3 4.7 0 9.7-.8 14.6-2.3 8.2-2.5 15.3-6.6 20.1-11.7 4.5-4.9 6.3-10.1 5-14.6-1.9-6.4-9.9-10.4-20.8-10.4-4.7 0-9.7.8-14.6 2.3-16.7 5-27.9 16.9-25 26.4.1.4.2.9.4 1.4zm17.8-11.4s.8-.2 1.6.4c0 0 .9.6 2-.8 0-.1-.1-.1-.1-.1s-1.3-.9-2.7-.3c0 0 1.7-1.6 2.6-1 0 0 .6.5 2.1-.6.1-.2.1-.3.2-.5-.8-.4-1.3-.9-1.3-.9-1-1-1-1.8-1-1.8 1.4 1.2 2.5 1.4 3.1 1.4-.2-.2-.4-.3-.8-.5 0 0-1.5-.7-2.1-2 0 0-.8-1.6-2.7-1.4 0 0 1.3-1.3 2.7-.6 0 0 .7.4.9 1.3 0 0 .3 1 1.9.9v-.2s-.3-1.5-1.7-2.1c0 0 2.4 0 2.5 1 0 0 .1.8 2 1-.3-.9-.4-1.8-.4-1.8 0-1.5.5-2 .5-2 .1 1.9.7 2.7 1.2 3.2 0-.3-.1-.6-.2-.9 0 0-.6-1.5-.1-2.8 0 0 .6-1.7-.9-2.8 0 0 1.8 0 2.3 1.5 0 0 .2.8-.4 1.6 0 0-.6.9.8 2 .1 0 .1-.1.1-.1s.9-1.3.3-2.7c0 0 1.6 1.7 1 2.6 0 0-.5.6.6 2.1l.9.3c.4-.8.9-1.4.9-1.4 1-1 1.8-1 1.8-1-1.2 1.4-1.4 2.5-1.4 3.1.2-.2.3-.4.5-.8 0 0 .7-1.5 2-2.1 0 0 1.6-.8 1.4-2.7 0 0 1.3 1.3.6 2.7 0 0-.4.7-1.3.9 0 0-1 .3-.9 1.9h.2s1.5-.3 2.1-1.7c0 0 0 2.4-1 2.5 0 0-.9.1-1 2.2 0 .1.1.2.1.2.9-.3 1.7-.4 1.7-.4 1.5 0 2 .5 2 .5-1.9.1-2.7.7-3.2 1.2.3 0 .6-.1.9-.2 0 0 1.5-.6 2.8-.1 0 0 1.7.6 2.8-.9 0 0 0 1.8-1.5 2.3 0 0-.8.2-1.6-.4 0 0-.9-.6-2 .8 0 .1.1.1.1.1s1.3.9 2.7.3c0 0-1.7 1.6-2.6 1 0 0-.7-.5-2.2.7 0 .1-.1.2-.1.3.8.4 1.4.9 1.4.9 1 1 1 1.8 1 1.8-1.4-1.2-2.5-1.4-3.1-1.4.2.2.4.3.8.5 0 0 1.5.7 2.1 2 0 0 .8 1.6 2.7 1.4 0 0-1.3 1.3-2.7.6 0 0-.7-.4-.9-1.3 0 0-.3-1-1.9-.9v.2s.3 1.5 1.7 2.1c0 0-2.4 0-2.5-1 0 0-.1-.8-1.9-1-.3.1-.6.2-.8.3.2.8.3 1.4.3 1.4 0 1.5-.5 2-.5 2-.1-1.8-.7-2.7-1.1-3.1h-.1c0 .2.1.5.2.8 0 0 .6 1.5.1 2.8 0 0-.6 1.7.9 2.8 0 0-1.8 0-2.3-1.5 0 0-.2-.8.4-1.6 0 0 .6-.9-.8-2-.1 0-.1.1-.1.1s-.9 1.3-.3 2.7c0 0-1.6-1.7-1-2.6 0 0 .5-.7-.7-2.2-1 .9-1.5 1.3-1.5 1.3-1 1-1.8 1-1.8 1 1.1-1.3 1.4-2.4 1.4-3h-.1c-.4.4-.4.6-.5.9 0 0-.7 1.5-2 2.1 0 0-1.6.8-1.4 2.7 0 0-1.3-1.3-.6-2.7 0 0 .4-.7 1.3-.9 0 0 1-.3.9-1.9h-.2s-1.5.3-2.1 1.7c0 0 0-2.4 1-2.5 0 0 .8-.1 1-1.8-.1-.2-.2-.4-.2-.5-.8.2-1.5.3-1.5.3-1.5 0-2-.5-2-.5 1.8-.1 2.7-.7 3.2-1.1v-.1c-.2 0-.5.1-.8.2 0 0-1.5.6-2.8.1 0 0-1.7-.6-2.8.9.2-.1.2-1.9 1.9-2.4zM9.1 31.3c8.1-6.5 18.6-12.1 30.5-15.7 9.2-2.7 18.3-4.2 27.2-4.2 2.4 0 4.6.1 6.9.3C66.8 7.5 58.7 5 50 5 31.9 5 16.2 15.8 9.1 31.3zm28.2 45.6c6.4 0 13.2-1 19.9-3C80 67 95.4 50.7 91.4 37.6 88.9 29.3 79.3 24 65.9 23.3c-.7 2.1-2.6 3.6-4.8 3.6s-4.1-1.4-4.7-3.3c-4.5.5-9 1.3-13.5 2.7C20.1 33 4.7 49.3 8.7 62.5c2.6 8.8 13.6 14.4 28.6 14.4zM17.4 60.6c-3.3-11 8.7-24.3 26.8-29.7 5.2-1.6 10.3-2.4 15.3-2.4 12.1 0 21.1 4.7 23.4 12.3 1.6 5.4-.4 11.6-5.6 17.2-4.8 5.5-12.4 10-21 12.6C51.1 72.2 46 73 41 73c-6.2 0-11.5-1.2-15.5-3.3-.9.9-2.2 1.5-3.6 1.5-2.7 0-5-2.3-5-5 0-1.4.6-2.7 1.4-3.5-.4-.8-.7-1.4-.9-2.1z"></path></g><!----></svg>