<svg data-v-423bf9ae="" xmlns="http://www.w3.org/2000/svg" viewBox="0 0 60 60" class="icon"><!----><!----><!----><!----><g data-v-423bf9ae="" id="15dfca8f-7178-402f-9d90-294e26bfa5b7" transform="matrix(0.6666666865348816,0,0,0.6666666865348816,-3.333334445953369,-3.333334445953369)" stroke="none" fill="white"><path d="M60.4 84.4c-9.2 2.7-18.3 4.2-27.2 4.2-2.4 0-4.6-.1-6.9-.3 6.9 4.3 15 6.7 23.7 6.7 17.2 0 32.3-9.8 39.8-24-.5-.1-.9-.3-1.2-.5-7.7 5.7-17.3 10.7-28.2 13.9zM42 23.6c4.7-1.4 9.5-2.4 14.1-2.8.5-2.3 2.5-4 4.9-4s4.3 1.6 4.8 3.8c11.1.6 19.8 4.2 24.6 9.9-2.9-6.1-7.1-11.3-12.2-15.4-3.6-.6-7.5-.9-11.6-.9-8.6 0-17.4 1.3-26.3 4.1-13.4 3.9-25.1 10.6-33.2 18.2C5.8 40.8 5 45.3 5 50c0 2.1.2 4.2.5 6.3C7 43.4 21.7 29.7 42 23.6zm16.1 52.8c-7 2.1-13.9 3.2-20.7 3.2-12.6 0-22.5-3.7-27.9-10 2.9 6.1 7.1 11.3 12.2 15.4 3.6.6 7.5.9 11.6.9 8.6 0 17.4-1.3 26.3-4.1C70 78.7 79.2 74 86.7 68.6c-.5-.8-.7-1.6-.7-2.6 0-2.7 2.3-5 5-5 .9 0 1.7.2 2.5.7C94.5 58 95 54.1 95 50c0-2.1-.2-4.2-.5-6.3-1.4 12.9-16.1 26.5-36.4 32.7zM20.5 61.3c.4-.1.8-.2 1.2-.2 2.7 0 5 2.3 5 5 0 .4-.1.8-.1 1.1 3.7 1.9 8.5 3 14.2 3 4.7 0 9.7-.8 14.6-2.3 8.2-2.5 15.3-6.6 20.1-11.7 4.5-4.9 6.3-10.1 5-14.6-1.9-6.4-9.9-10.4-20.8-10.4-4.7 0-9.7.8-14.6 2.3-16.7 5-27.9 16.9-25 26.4.1.4.2.9.4 1.4zm17.8-11.4s.8-.2 1.6.4c0 0 .9.6 2-.8 0-.1-.1-.1-.1-.1s-1.3-.9-2.7-.3c0 0 1.7-1.6 2.6-1 0 0 .6.5 2.1-.6.1-.2.1-.3.2-.5-.8-.4-1.3-.9-1.3-.9-1-1-1-1.8-1-1.8 1.4 1.2 2.5 1.4 3.1 1.4-.2-.2-.4-.3-.8-.5 0 0-1.5-.7-2.1-2 0 0-.8-1.6-2.7-1.4 0 0 1.3-1.3 2.7-.6 0 0 .7.4.9 1.3 0 0 .3 1 1.9.9v-.2s-.3-1.5-1.7-2.1c0 0 2.4 0 2.5 1 0 0 .1.8 2 1-.3-.9-.4-1.8-.4-1.8 0-1.5.5-2 .5-2 .1 1.9.7 2.7 1.2 3.2 0-.3-.1-.6-.2-.9 0 0-.6-1.5-.1-2.8 0 0 .6-1.7-.9-2.8 0 0 1.8 0 2.3 1.5 0 0 .2.8-.4 1.6 0 0-.6.9.8 2 .1 0 .1-.1.1-.1s.9-1.3.3-2.7c0 0 1.6 1.7 1 2.6 0 0-.5.6.6 2.1l.9.3c.4-.8.9-1.4.9-1.4 1-1 1.8-1 1.8-1-1.2 1.4-1.4 2.5-1.4 3.1.2-.2.3-.4.5-.8 0 0 .7-1.5 2-2.1 0 0 1.6-.8 1.4-2.7 0 0 1.3 1.3.6 2.7 0 0-.4.7-1.3.9 0 0-1 .3-.9 1.9h.2s1.5-.3 2.1-1.7c0 0 0 2.4-1 2.5 0 0-.9.1-1 2.2 0 .1.1.2.1.2.9-.3 1.7-.4 1.7-.4 1.5 0 2 .5 2 .5-1.9.1-2.7.7-3.2 1.2.3 0 .6-.1.9-.2 0 0 1.5-.6 2.8-.1 0 0 1.7.6 2.8-.9 0 0 0 1.8-1.5 2.3 0 0-.8.2-1.6-.4 0 0-.9-.6-2 .8 0 .1.1.1.1.1s1.3.9 2.7.3c0 0-1.7 1.6-2.6 1 0 0-.7-.5-2.2.7 0 .1-.1.2-.1.3.8.4 1.4.9 1.4.9 1 1 1 1.8 1 1.8-1.4-1.2-2.5-1.4-3.1-1.4.2.2.4.3.8.5 0 0 1.5.7 2.1 2 0 0 .8 1.6 2.7 1.4 0 0-1.3 1.3-2.7.6 0 0-.7-.4-.9-1.3 0 0-.3-1-1.9-.9v.2s.3 1.5 1.7 2.1c0 0-2.4 0-2.5-1 0 0-.1-.8-1.9-1-.3.1-.6.2-.8.3.2.8.3 1.4.3 1.4 0 1.5-.5 2-.5 2-.1-1.8-.7-2.7-1.1-3.1h-.1c0 .2.1.5.2.8 0 0 .6 1.5.1 2.8 0 0-.6 1.7.9 2.8 0 0-1.8 0-2.3-1.5 0 0-.2-.8.4-1.6 0 0 .6-.9-.8-2-.1 0-.1.1-.1.1s-.9 1.3-.3 2.7c0 0-1.6-1.7-1-2.6 0 0 .5-.7-.7-2.2-1 .9-1.5 1.3-1.5 1.3-1 1-1.8 1-1.8 1 1.1-1.3 1.4-2.4 1.4-3h-.1c-.4.4-.4.6-.5.9 0 0-.7 1.5-2 2.1 0 0-1.6.8-1.4 2.7 0 0-1.3-1.3-.6-2.7 0 0 .4-.7 1.3-.9 0 0 1-.3.9-1.9h-.2s-1.5.3-2.1 1.7c0 0 0-2.4 1-2.5 0 0 .8-.1 1-1.8-.1-.2-.2-.4-.2-.5-.8.2-1.5.3-1.5.3-1.5 0-2-.5-2-.5 1.8-.1 2.7-.7 3.2-1.1v-.1c-.2 0-.5.1-.8.2 0 0-1.5.6-2.8.1 0 0-1.7-.6-2.8.9.2-.1.2-1.9 1.9-2.4zM9.1 31.3c8.1-6.5 18.6-12.1 30.5-15.7 9.2-2.7 18.3-4.2 27.2-4.2 2.4 0 4.6.1 6.9.3C66.8 7.5 58.7 5 50 5 31.9 5 16.2 15.8 9.1 31.3zm28.2 45.6c6.4 0 13.2-1 19.9-3C80 67 95.4 50.7 91.4 37.6 88.9 29.3 79.3 24 65.9 23.3c-.7 2.1-2.6 3.6-4.8 3.6s-4.1-1.4-4.7-3.3c-4.5.5-9 1.3-13.5 2.7C20.1 33 4.7 49.3 8.7 62.5c2.6 8.8 13.6 14.4 28.6 14.4zM17.4 60.6c-3.3-11 8.7-24.3 26.8-29.7 5.2-1.6 10.3-2.4 15.3-2.4 12.1 0 21.1 4.7 23.4 12.3 1.6 5.4-.4 11.6-5.6 17.2-4.8 5.5-12.4 10-21 12.6C51.1 72.2 46 73 41 73c-6.2 0-11.5-1.2-15.5-3.3-.9.9-2.2 1.5-3.6 1.5-2.7 0-5-2.3-5-5 0-1.4.6-2.7 1.4-3.5-.4-.8-.7-1.4-.9-2.1z"></path></g><!----></svg>