<?xml version="1.0" standalone="no"?>
<!DOCTYPE svg PUBLIC "-//W3C//DTD SVG 20010904//EN"
 "http://www.w3.org/TR/2001/REC-SVG-20010904/DTD/svg10.dtd">
<svg version="1.0" xmlns="http://www.w3.org/2000/svg"
 width="1000.000000pt" height="1000.000000pt" viewBox="0 0 1000.000000 1000.000000"
 preserveAspectRatio="xMidYMid meet">
<metadata>
Created by potrace 1.11, written by Peter Selinger 2001-2013
</metadata>
<g transform="translate(0.000000,1000.000000) scale(0.100000,-0.100000)"
fill="#000000" stroke="none">
<path d="M4848 8664 c-2 -1 -50 -5 -108 -8 -58 -3 -118 -8 -135 -11 -16 -2
-79 -11 -140 -20 -825 -116 -1607 -535 -2180 -1166 -230 -253 -446 -574 -587
-871 -28 -60 -29 -67 -6 -45 64 62 513 372 708 489 273 163 606 334 885 452
61 26 124 53 140 61 116 53 608 226 765 269 30 8 80 22 110 31 64 19 42 13
250 64 91 23 179 44 195 47 17 3 46 9 65 14 39 10 166 36 220 45 45 8 79 14
110 20 65 12 78 15 120 20 25 3 52 8 60 10 8 2 35 6 60 9 25 3 99 12 165 21
66 8 154 17 195 20 41 3 89 7 105 10 171 23 839 23 1038 0 40 -5 33 6 -26 41
-254 148 -669 319 -917 379 -178 43 -356 78 -460 90 -25 3 -56 7 -70 10 -67
12 -552 29 -562 19z"/>
<path d="M6108 7914 c-2 -1 -66 -5 -143 -8 -77 -4 -151 -8 -165 -11 -14 -2
-63 -6 -110 -10 -47 -3 -92 -7 -100 -10 -8 -2 -45 -6 -82 -10 -37 -3 -77 -8
-90 -10 -13 -2 -39 -6 -58 -9 -84 -11 -288 -48 -510 -92 -27 -6 -219 -50 -260
-61 -14 -3 -29 -7 -35 -8 -22 -6 -259 -76 -420 -125 -212 -64 -547 -181 -630
-220 -11 -5 -81 -34 -155 -66 -264 -111 -614 -289 -871 -445 -140 -84 -413
-266 -484 -322 -5 -4 -55 -42 -110 -84 -55 -43 -102 -80 -105 -83 -3 -3 -18
-16 -35 -29 -39 -29 -148 -125 -202 -176 -39 -36 -45 -50 -72 -150 -16 -60
-41 -164 -55 -230 -27 -130 -30 -147 -51 -288 -37 -242 -39 -639 -4 -881 9
-70 18 -96 20 -60 4 108 83 367 163 536 446 946 1629 1788 3016 2147 161 42
397 96 464 105 21 4 41 8 45 10 3 2 31 7 61 10 30 4 69 9 85 12 17 3 41 7 54
9 13 2 57 7 98 11 41 3 82 8 92 9 9 2 21 4 27 4 7 1 15 13 18 27 22 88 102
192 184 240 26 16 52 29 57 31 129 34 198 35 281 7 120 -41 222 -147 258 -270
5 -17 14 -21 39 -21 29 0 86 -4 227 -18 25 -3 61 -8 80 -11 19 -3 49 -8 65
-10 17 -2 48 -6 70 -10 22 -4 47 -8 55 -9 8 -1 33 -6 55 -10 22 -4 47 -9 55
-10 37 -7 270 -68 330 -87 390 -123 723 -317 955 -556 33 -34 61 -60 62 -58 2
2 -7 23 -20 47 -89 165 -117 214 -167 294 -178 284 -407 553 -671 786 -110 98
-123 106 -189 114 -30 4 -62 9 -70 10 -8 2 -42 6 -75 9 -33 4 -73 9 -90 11
-16 2 -66 7 -110 10 -44 3 -102 8 -130 11 -49 6 -642 13 -647 8z"/>
<path d="M6274 7126 c-35 -70 -67 -110 -125 -156 -160 -126 -390 -112 -533 34
-28 28 -61 72 -74 99 -13 26 -27 47 -32 47 -8 0 -131 -16 -200 -26 -19 -2 -53
-7 -75 -10 -95 -11 -256 -43 -515 -100 -27 -6 -257 -69 -305 -84 -227 -71
-505 -170 -640 -230 -22 -10 -69 -30 -105 -46 -114 -49 -341 -165 -475 -242
-107 -61 -319 -193 -360 -224 -5 -4 -57 -43 -115 -86 -292 -217 -538 -453
-710 -682 -14 -18 -29 -38 -35 -44 -45 -50 -171 -258 -225 -372 -40 -83 -104
-249 -115 -296 -2 -13 -11 -52 -19 -88 -91 -411 21 -828 304 -1127 274 -289
715 -509 1220 -607 14 -3 34 -7 45 -9 11 -3 40 -8 65 -12 25 -4 52 -9 60 -10
8 -2 44 -6 80 -10 36 -4 67 -8 70 -10 34 -19 730 -27 910 -11 52 5 106 10 120
11 29 2 173 18 180 20 3 1 30 5 60 9 47 7 132 21 245 41 17 3 75 15 130 26 55
12 107 23 117 24 79 16 369 99 523 150 452 150 853 337 1230 574 105 66 251
164 280 188 6 5 28 22 50 38 51 38 178 138 185 146 3 3 41 37 85 76 146 128
330 327 453 488 26 33 133 197 154 235 116 207 190 396 214 545 3 22 8 43 10
46 7 12 17 143 17 219 1 434 -222 818 -633 1090 -86 56 -314 177 -365 192 -11
4 -56 20 -100 37 -144 56 -452 133 -615 155 -25 3 -65 8 -90 12 -25 3 -59 7
-77 9 -17 3 -67 7 -110 11 -43 3 -90 7 -106 9 -24 2 -30 -4 -53 -49z m-144
-390 c19 -3 55 -8 80 -11 25 -3 56 -7 70 -9 14 -3 39 -7 55 -9 294 -46 622
-168 835 -310 697 -463 740 -1254 109 -1988 -89 -103 -251 -265 -338 -338
-356 -301 -808 -545 -1327 -717 -159 -52 -476 -136 -559 -148 -22 -4 -51 -8
-65 -11 -61 -13 -77 -16 -110 -20 -19 -3 -44 -7 -55 -10 -11 -2 -51 -7 -90
-10 -38 -4 -77 -8 -86 -10 -79 -15 -495 -22 -634 -11 -352 30 -608 86 -864
192 -47 20 -90 39 -96 44 -30 23 -55 20 -99 -14 -259 -197 -637 -15 -651 314
-4 94 41 226 93 273 20 18 20 19 -14 92 -58 126 -78 227 -78 405 -1 222 34
367 139 587 50 103 180 308 240 378 14 17 45 52 68 80 23 27 85 92 137 143
427 424 1022 753 1720 952 314 90 551 133 895 164 56 5 582 -2 625 -8z"/>
<path d="M5539 6526 c-2 -2 -39 -6 -81 -10 -357 -29 -826 -143 -1213 -296
-479 -189 -877 -437 -1186 -740 -294 -289 -467 -582 -519 -880 -16 -90 -14
-231 4 -315 45 -211 43 -208 98 -196 113 26 278 -38 359 -140 74 -92 97 -157
97 -265 0 -38 1 -74 1 -80 1 -14 139 -76 265 -118 124 -42 325 -89 432 -101
28 -3 59 -7 70 -9 124 -24 602 -25 774 -1 14 2 48 6 75 9 137 17 375 63 525
102 944 244 1740 757 2089 1344 121 203 181 391 186 583 5 216 -45 376 -172
548 -41 56 -142 158 -184 187 -13 8 -26 19 -29 23 -13 17 -144 95 -235 140
-188 92 -479 174 -690 195 -33 3 -71 8 -85 11 -29 6 -575 15 -581 9z m-631
-413 c78 -37 105 -123 63 -203 -11 -22 -21 -53 -21 -69 0 -27 52 -111 69 -111
29 0 62 112 50 174 -4 23 -6 42 -6 43 1 1 19 -23 39 -54 42 -62 57 -117 39
-144 -18 -29 -13 -71 14 -125 21 -42 32 -53 65 -64 22 -7 42 -11 44 -9 2 2 15
25 31 52 29 51 93 109 139 127 39 15 42 7 13 -32 -37 -49 -66 -111 -73 -157
-4 -23 -4 -41 -1 -41 3 0 20 27 37 59 37 70 77 112 145 156 28 18 60 43 72 56
31 34 60 104 58 139 -1 16 0 30 1 30 2 0 15 -17 29 -38 27 -41 41 -108 31
-148 -9 -34 -70 -91 -106 -99 -29 -6 -79 -55 -81 -78 0 -7 -2 -27 -4 -44 -3
-26 0 -33 13 -33 35 1 100 39 136 81 l38 44 -7 -55 c-11 -84 -28 -117 -72
-137 -45 -21 -71 -67 -80 -142 -7 -58 -5 -59 68 -37 44 14 129 15 176 3 23 -6
62 -26 53 -27 -3 0 -23 -3 -45 -6 -59 -7 -147 -41 -180 -69 -33 -29 -19 -31
45 -9 66 24 155 28 228 11 83 -20 133 -12 188 29 39 30 42 30 36 -3 -7 -40
-46 -97 -82 -123 -27 -19 -40 -22 -82 -17 -28 4 -55 11 -62 16 -44 37 -115 26
-162 -25 l-26 -27 38 -21 c28 -14 59 -20 106 -21 38 0 68 -2 68 -5 0 -3 -25
-21 -55 -39 -56 -34 -83 -39 -157 -26 -47 9 -101 -9 -139 -46 -16 -15 -29 -31
-29 -33 0 -3 19 -15 41 -27 55 -28 121 -97 141 -148 9 -23 14 -41 11 -41 -4 0
-21 12 -40 26 -40 31 -126 70 -171 78 -43 7 -34 -8 21 -35 64 -33 126 -87 162
-143 44 -68 68 -92 118 -117 23 -12 43 -21 45 -20 1 0 17 1 35 1 l32 -1 -29
-24 c-55 -44 -147 -53 -195 -18 -14 11 -39 46 -56 78 -33 64 -76 95 -132 95
-38 0 -40 -9 -13 -65 21 -45 42 -70 84 -103 l29 -22 -39 5 c-109 16 -139 31
-160 81 -9 22 -27 39 -56 52 -52 25 -72 28 -122 17 l-38 -8 8 -41 c13 -62 10
-167 -5 -204 -17 -40 -19 -38 -27 19 -11 79 -60 189 -85 189 -4 0 2 -33 13
-72 21 -80 24 -161 7 -205 -25 -65 -6 -162 40 -210 28 -29 27 -32 -11 -24 -56
13 -97 40 -124 81 -22 34 -26 47 -21 84 4 25 15 59 26 76 27 45 12 109 -37
153 -20 18 -21 18 -36 -5 -22 -35 -39 -114 -33 -154 6 -34 5 -35 -12 -20 -21
19 -59 94 -64 127 -2 13 2 37 8 54 7 16 11 41 9 54 -5 27 -54 121 -63 121 -3
0 -20 -13 -37 -28 -140 -122 -181 -151 -217 -152 -16 0 -16 2 2 21 34 36 91
155 91 189 0 43 -14 31 -49 -43 -33 -68 -97 -139 -151 -167 -66 -34 -109 -97
-119 -172 l-7 -53 -27 46 c-63 106 -39 189 67 241 27 12 57 34 68 48 20 28 34
105 21 113 -18 12 -110 -41 -147 -84 l-38 -44 7 50 c12 81 34 126 69 140 17 7
39 22 47 32 25 27 42 90 35 127 l-6 33 -65 -14 c-70 -14 -122 -12 -179 7 -37
12 -40 22 -8 26 70 10 98 17 144 37 50 22 93 57 70 57 -5 0 -29 -7 -53 -16
-51 -19 -180 -27 -215 -14 -68 26 -146 16 -203 -27 l-33 -26 7 24 c13 45 55
108 86 129 47 34 98 37 161 8 58 -27 88 -27 128 -1 25 16 60 49 60 56 0 3 -23
15 -52 27 -42 18 -64 21 -110 17 -57 -5 -58 -5 -36 13 73 57 111 67 209 54 36
-4 56 -1 87 15 48 24 85 72 63 79 -21 7 -112 84 -132 112 -10 14 -26 42 -34
63 -17 42 -18 42 45 -1 19 -13 53 -32 75 -42 40 -18 115 -36 115 -27 0 2 -28
21 -63 41 -79 46 -120 85 -164 153 -44 69 -101 111 -164 119 -27 4 -46 11 -43
15 13 21 90 51 130 51 62 0 104 -28 135 -90 14 -28 33 -60 43 -71 28 -31 126
-47 126 -20 0 27 -48 104 -86 138 l-44 38 43 -4 c80 -10 130 -35 149 -76 19
-39 53 -61 117 -76 47 -10 46 -12 27 69 -14 60 -12 135 5 188 16 47 26 39 33
-25 7 -62 42 -149 69 -172 15 -12 17 -11 17 3 0 9 -7 33 -15 53 -22 51 -26
161 -10 222 23 87 10 146 -44 204 l-26 28 35 -6 c19 -3 49 -13 68 -22z"/>
<path d="M8616 5443 c-14 -118 -79 -335 -144 -477 -203 -446 -572 -878 -1067
-1248 -160 -119 -197 -144 -490 -325 -11 -7 -76 -43 -145 -79 -69 -37 -143
-77 -165 -89 -22 -12 -87 -43 -145 -69 -145 -66 -156 -71 -230 -101 -36 -15
-78 -33 -95 -40 -152 -67 -659 -227 -825 -260 -8 -2 -42 -10 -75 -18 -33 -9
-77 -18 -99 -21 -21 -4 -41 -8 -45 -11 -6 -3 -92 -19 -271 -49 -14 -3 -43 -7
-65 -10 -22 -2 -76 -9 -120 -15 -246 -31 -333 -36 -655 -36 -258 0 -456 8
-520 20 -8 2 -44 6 -80 10 -36 3 -72 8 -80 10 -8 3 -33 7 -55 10 -22 2 -51 7
-65 10 -14 3 -41 8 -60 11 -327 58 -726 207 -976 364 -142 89 -237 164 -368
289 l-69 66 53 -100 c195 -375 480 -742 785 -1010 147 -130 149 -130 230 -139
33 -4 87 -11 120 -16 302 -45 888 -57 1270 -26 136 12 193 17 215 21 14 2 54
7 90 10 36 4 72 8 80 10 8 2 40 7 70 10 84 10 345 55 465 81 39 8 81 17 95 20
223 45 846 232 1095 328 520 202 896 386 1310 641 129 80 371 240 397 264 4 4
-1 25 -12 46 -94 190 -4 437 195 535 102 51 247 55 335 10 21 -11 41 -20 43
-20 3 0 8 17 12 38 4 20 6 37 5 37 -1 0 3 13 9 28 14 36 58 272 67 357 3 36 8
68 10 71 15 27 23 501 10 654 -11 133 -25 257 -31 263 -1 1 -5 -23 -9 -55z"/>
<path d="M8094 3292 c-369 -269 -790 -511 -1284 -740 -169 -78 -479 -198 -726
-281 -270 -90 -764 -220 -1004 -264 -14 -3 -74 -14 -135 -25 -60 -11 -130 -24
-155 -28 -25 -4 -47 -8 -50 -9 -3 -1 -32 -5 -65 -9 -33 -5 -69 -10 -80 -12
-32 -6 -253 -32 -330 -39 -134 -12 -161 -14 -305 -21 -243 -12 -556 -9 -837
10 -34 2 -40 0 -32 -11 7 -7 15 -13 19 -13 4 0 47 -23 95 -51 86 -49 237 -124
340 -169 28 -11 59 -25 70 -30 142 -66 595 -194 756 -214 24 -3 55 -8 68 -11
13 -2 49 -7 80 -11 31 -3 63 -8 72 -9 126 -24 630 -24 809 0 14 2 48 6 75 9
76 9 273 45 335 61 30 8 66 16 80 19 37 7 195 53 275 81 390 133 743 322 1065
569 103 79 125 97 225 186 163 145 386 394 519 578 99 137 273 420 263 428 -1
1 -23 10 -48 21 l-46 20 -49 -35z"/>
</g>
</svg>
